# AST/ASF file generated using VICON BodyLanguage
# -----------------------------------------------
:version 1.10
:name VICON
:units
  mass 1.0
  length 0.45
  angle deg
:documentation
   .ast/.asf automatically generated from VICON data using
   VICON BodyBuilder and BodyLanguage model FoxedUp or BRILLIANT.MOD
:root
   order TX TY TZ RX RY RZ
   axis XYZ
   position 0 0 0  
   orientation 0 0 0 
:bonedata
  begin
     id 1 
     name lhipjoint
     direction 0.566809 -0.746272 0.349008 
     length 2.40479 
     axis 0 0 0  XYZ
  end
  begin
     id 2 
     name lfemur
     direction 0.34202 -0.939693 0  
     length 7.1578  
     axis 0 0 20  XYZ
    dof rx ry rz
    limits (-160.0 20.0)
           (-70.0 70.0)
           (-60.0 70.0)
  end
  begin
     id 3 
     name ltibia
     direction 0.34202 -0.939693 0   
     length 7.49137   
     axis 0 0 20   XYZ
    dof rx
    limits (-10.0 170.0)
  end
  begin
     id 4 
     name lfoot
     direction 0.0665746 -0.182912 0.980873   
     length 2.36784   
     axis -90 7.62852e-016 20   XYZ
    dof rx rz
    limits (-45.0 90.0)
           (-70.0 20.0)
  end
  begin
     id 5 
     name ltoes
     direction 1.53601e-011 -4.22058e-011 1   
     length 1.18966   
     axis -90 7.62852e-016 20   XYZ
    dof rx
    limits (-90.0 20.0)
  end
  begin
     id 6 
     name rhipjoint
     direction -0.550236 -0.756381 0.353735   
     length 2.37265  
     axis 0 0 0  XYZ 
  end
  begin
     id 7 
     name rfemur
     direction -0.34202 -0.939693 0   
     length 7.43386   
     axis 0 0 -20   XYZ
    dof rx ry rz
    limits (-160.0 20.0)
           (-70.0 70.0)
           (-70.0 60.0)
  end
  begin
     id 8 
     name rtibia
     direction -0.34202 -0.939693 0   
     length 7.50908   
     axis 0 0 -20   XYZ
    dof rx
    limits (-10.0 170.0)
 end
 begin
     id 9 
     name rfoot
     direction -0.0683029 -0.187661 0.979856   
     length 2.41173  
     axis -90 -7.62852e-016 -20   XYZ
    dof rx rz
    limits (-45.0 90.0)
           (-20.0 70.0)
  end
  begin
     id 10 
     name rtoes
     direction -1.53528e-011 -4.21968e-011 1   
     length 1.21082   
     axis -90 -7.62852e-016 -20   XYZ
    dof rx
    limits (-90.0 20.0)
  end
  begin
     id 11 
     name lowerback
     direction 0.013823 0.995423 -0.0945635   
     length 2.04495   
     axis 0 0 0   XYZ
    dof rx ry rz
    limits (-20.0 45.0)
           (-30.0 30.0)
           (-30.0 30.0)
  end
  begin
     id 12 
     name upperback
     direction 0.0276657 0.9994 -0.020853   
     length 2.05008   
     axis 0 0 0   XYZ
    dof rx ry rz
    limits (-20.0 45.0)
           (-30.0 30.0)
           (-30.0 30.0)
  end
  begin
     id 13 
     name thorax
     direction 0.019782 0.999531 0.0233827   
     length 2.06488   
     axis 0 0 0   XYZ
    dof rx ry rz
    limits (-20.0 45.0)
           (-30.0 30.0)
           (-30.0 30.0)
  end
  begin
     id 14 
     name lowerneck
     direction -0.0308541 0.994709 0.0979874   
     length 1.75553   
     axis 0 0 0   XYZ
    dof rx ry rz
    limits (-20.0 45.0)
           (-30.0 30.0)
           (-30.0 30.0)
  end
  begin
     id 15 
     name upperneck
     direction 0.0588398 0.995804 -0.0700903   
     length 1.76878   
     axis 0 0 0   XYZ
    dof rx ry rz
    limits (-20.0 45.0)
           (-30.0 30.0)
           (-30.0 30.0)
  end
  begin
     id 16
     name head
     direction 0.0209966 0.999159 -0.0352225  
     length 1.77193  
     axis 0 0 0   XYZ
    dof rx ry rz
    limits (-20.0 45.0)
           (-30.0 30.0)
           (-30.0 30.0)
  end
  begin
     id 17 
     name lclavicle
     direction 0.938182 0.335073 -0.0868338  
     length 3.58396  
     axis 0 0 0   XYZ
    dof ry rz
    limits (-20.0 10.0)
           (0.0 20.0)
  end
  begin
     id 18 
     name lhumerus
     direction 1 -4.48971e-011 -1.26313e-017   
     length 4.983   
     axis 180 -30 -90   XYZ
    dof rx ry rz
    limits (-60.0 90.0)
           (-90.0 90.0)
           (-90.0 90.0)
  end
  begin
     id 19
     name lradius
     direction 1 -4.48948e-011 -5.89033e-027   
     length 3.48356   
     axis 180 -30 -90   XYZ
    dof rx
    limits (-10.0 170.0)
  end
  begin
     id 20
     name lwrist
     direction 1 -4.48977e-011 -1.48983e-026   
     length 1.74178   
     axis 9.0955e-015 90 90   XYZ
    dof ry
    limits (-180.0 0.0)
 end
  begin
     id 21 
     name lhand
     direction 1 -4.49046e-011 -2.98066e-026   
     length 0.715259   
     axis 1.90115e-014 90 90   XYZ
    dof rx rz
    limits (-90.0 90.0)
           (-45.0 45.0)
  end
  begin
     id 22 
     name lfingers
     direction 1 -4.48907e-011 -5.95731e-026   
     length 0.576661   
     axis 3.80223e-014 90 90   XYZ
    dof rx
    limits (0.0 90.0)
  end
  begin
     id 23
     name lthumb
     direction 0.707107 -6.34963e-011 0.707107   
     length 0.827973   
     axis -90 45 -3.84942e-014   XYZ
    dof rx rz
    limits (-45.0 45.0)
           (-45.0 45.0)
  end
  begin
     id 24 
     name rclavicle
     direction -0.909637 0.398485 -0.11735   
     length 3.44819  
     axis 0 0 0   XYZ 
    dof ry rz
    limits (-10.0 20.0)
           (-20.0 0.0)
  end
  begin
     id 25 
     name rhumerus
     direction -1 -4.48978e-011 -1.09333e-027  
     length 5.2419   
     axis 180 30 90   XYZ
    dof rx ry rz
    limits (-90.0 60.0)
           (-90.0 90.0)
           (-90.0 90.0)
  end
  begin
     id 26 
     name rradius
     direction -1 -4.48953e-011 -7.61841e-027   
     length 3.44417   
     axis 180 30 90   XYZ
    dof rx
    limits (-10.0 170.0)
  end
  begin
     id 27 
     name rwrist
     direction -1 -4.48977e-011 -1.48983e-026   
     length 1.72209   
     axis 9.0955e-015 -90 -90   XYZ
    dof ry
    limits (-180.0 0.0)
  end
  begin
     id 28
     name rhand
     direction -1 -4.49027e-011 -2.98038e-026   
     length 0.622529   
     axis 1.90115e-014 -90 -90   XYZ
    dof rx rz
    limits (-90.0 90.0)
           (-45.0 45.0)
  end
  begin
     id 29
     name rfingers
     direction -1 -4.48838e-011 -5.95531e-026   
     length 0.501899   
     axis 3.80223e-014 -90 -90   XYZ
    dof rx
    limits (0.0 90.0)
  end
  begin
     id 30
     name rthumb
     direction -0.707107 -6.34937e-011 0.707107   
     length 0.720629   
     axis -90 -45 3.84942e-014   XYZ
    dof rx rz
    limits (-45.0 45.0)
           (-45.0 45.0)
  end
:hierarchy
  begin
    root lhipjoint rhipjoint lowerback
    lhipjoint lfemur
    lfemur ltibia
    ltibia lfoot
    lfoot ltoes
    rhipjoint rfemur
    rfemur rtibia
    rtibia rfoot
    rfoot rtoes
    lowerback upperback
    upperback thorax
    thorax lowerneck lclavicle rclavicle
    lowerneck upperneck
    upperneck head
    lclavicle lhumerus
    lhumerus lradius
    lradius lwrist
    lwrist lhand lthumb
    lhand lfingers
    rclavicle rhumerus
    rhumerus rradius
    rradius rwrist
    rwrist rhand rthumb
    rhand rfingers
  end

#!OML:ASF F:\VICON\USERDATA\Patient Classification 1\PLAYGROUND\JustinFriday\JustinFriday.ASF
:FULLY-SPECIFIED
:DEGREES
951
root -16.2269 29.1862 -10.466 229.354 78.9855 -157.418
lowerback 28.855 -1.60698 1.35928
upperback 11.7698 -0.22247 2.9639
thorax -2.69068 0.335993 2.51907
lowerneck -3.93329 -3.78044 -7.83979
upperneck 24.4083 -4.14631 3.40164
head 8.47178 -2.08613 2.16307
rclavicle -5.45664e-014 -4.11484e-014
rhumerus 7.06029 17.2266 -69.5543
rradius 80.3577
rwrist 22.3884
rhand -47.7417 1.22723
rfingers 7.12502
rthumb -20.4202 -27.7191
lclavicle -5.45664e-014 -4.11484e-014
lhumerus 8.89049 -24.9722 70.2382
lradius 85.6898
lwrist -34.8589
lhand -27.4777 -17.7672
lfingers 7.12502
lthumb -0.881483 12.2108
rfemur -26.0596 1.75623 26.8248
rtibia 26.2415
rfoot 6.14927 -8.89176
rtoes 21.07
lfemur -59.7934 7.03482 -17.6354
ltibia 73.435
lfoot -31.3782 -12.9249
ltoes 4.75959
952
root -16.2985 29.1238 -10.4524 226.669 79.0107 -159.87
lowerback 28.8786 -1.4084 1.02482
upperback 11.8173 -0.0287753 3.18767
thorax -2.651 0.420106 2.90032
lowerneck -3.56037 -3.93942 -8.33034
upperneck 23.9759 -4.38644 3.62919
head 8.29074 -2.2201 2.30373
rclavicle -1.94064e-014 -2.79541e-014
rhumerus 6.3662 16.8689 -68.1288
rradius 82.3949
rwrist 21.5211
rhand -47.8596 -1.05527
rfingers 7.12502
rthumb -20.5335 -29.9894
lclavicle -1.94064e-014 -2.79541e-014
lhumerus 9.51319 -25.0937 70.4564
lradius 86.6961
lwrist -34.3175
lhand -26.1566 -17.4762
lfingers 7.12502
lthumb 0.394497 12.5032
rfemur -25.4322 1.91975 26.1757
rtibia 24.912
rfoot 5.35073 -9.52512
rtoes 26.3257
lfemur -60.1774 6.77066 -18.1149
ltibia 74.2328
lfoot -31.4872 -13.4817
ltoes 5.6344
953
root -16.3647 29.0902 -10.4267 220.878 78.2657 -165.116
lowerback 29.3165 -1.8041 1.25513
upperback 11.9075 -0.409772 3.09596
thorax -2.73496 0.263363 2.78758
lowerneck -3.54004 -4.00919 -8.1196
upperneck 23.7745 -4.53323 3.70463
head 8.22223 -2.26481 2.27964
rclavicle -1.6437e-014 -3.45575e-014
rhumerus 6.12996 16.2666 -67.754
rradius 83.2308
rwrist 21.0961
rhand -48.2886 -2.82414
rfingers 7.12502
rthumb -20.9457 -31.7132
lclavicle -1.6437e-014 -3.45575e-014
lhumerus 10.318 -24.8879 70.7076
lradius 87.0072
lwrist -34.4516
lhand -24.9362 -17.8398
lfingers 7.12502
lthumb 1.57316 12.1342
rfemur -24.3963 2.30443 25.2744
rtibia 23.6409
rfoot 3.24994 -11.2506
rtoes 33.474
lfemur -60.1205 5.64428 -18.4597
ltibia 74.7848
lfoot -32.3103 -11.314
ltoes 0.714315
954
root -16.434 28.9676 -10.3642 226.269 78.8768 -159.232
lowerback 29.3601 -1.17048 0.38471
upperback 12.0776 0.162635 3.1763
thorax -2.58062 0.510454 3.20426
lowerneck -3.85262 -4.07924 -8.20965
upperneck 24.144 -4.60328 3.77042
head 8.41429 -2.29858 2.30853
rclavicle 3.62285e-014 2.41026e-015
rhumerus 6.32427 16.3189 -67.8
rradius 83.7989
rwrist 21.0143
rhand -48.1358 -4.24937
rfingers 7.12502
rthumb -20.7988 -33.1546
lclavicle 3.62285e-014 2.41026e-015
lhumerus 10.5813 -23.9528 70.9052
lradius 87.2154
lwrist -34.7302
lhand -24.0421 -18.5523
lfingers 7.12502
lthumb 2.43672 11.4135
rfemur -23.9269 2.96709 26.3404
rtibia 22.5207
rfoot 5.28829 -10.2073
rtoes 26.1314
lfemur -60.6922 7.06595 -17.8268
ltibia 75.9893
lfoot -32.0336 -13.6575
ltoes 4.97324
955
root -16.5029 28.8973 -10.2978 228.861 79.6413 -156.006
lowerback 30.1149 -0.332738 -1.44788
upperback 11.9462 0.746972 3.44682
thorax -3.10037 0.732035 4.39056
lowerneck -4.06544 -4.27546 -8.8718
upperneck 24.9298 -4.81341 4.10889
head 8.7692 -2.41969 2.52007
rclavicle 1.44119e-014 6.90777e-014
rhumerus 6.15305 16.4578 -67.6992
rradius 84.6084
rwrist 21.1307
rhand -47.3037 -5.4434
rfingers 7.12502
rthumb -19.9992 -34.4342
lclavicle 1.44119e-014 6.90777e-014
lhumerus 10.2321 -23.4548 71.1968
lradius 87.8252
lwrist -34.5554
lhand -23.3805 -18.4649
lfingers 7.12502
lthumb 3.07565 11.4927
rfemur -23.087 4.94213 26.305
rtibia 21.3682
rfoot 5.64608 -11.0307
rtoes 23.5782
lfemur -60.7401 8.28382 -17.7869
ltibia 76.901
lfoot -32.1928 -14.674
ltoes 7.03107
956
root -16.6025 28.825 -10.3036 221.263 78.9635 -163.563
lowerback 30.2754 -1.02242 -0.936715
upperback 11.7601 -0.0154757 2.87887
thorax -3.32775 0.398634 3.70325
lowerneck -3.78871 -4.36686 -8.58862
upperneck 24.9324 -5.14809 4.79013
head 8.74546 -2.4919 2.67948
rclavicle 1.09332e-014 -1.49089e-014
rhumerus 4.95347 16.3063 -67.6521
rradius 86.8583
rwrist 20.0213
rhand -46.3525 -2.60277
rfingers 7.12502
rthumb -19.0847 -31.6864
lclavicle 1.09332e-014 -1.49089e-014
lhumerus 10.7193 -23.6744 70.5773
lradius 88.3042
lwrist -34.1682
lhand -22.7074 -17.8533
lfingers 7.12502
lthumb 3.72571 12.0939
rfemur -22.9129 3.30732 25.8068
rtibia 20.2672
rfoot 7.22194 -9.64513
rtoes 16.4683
lfemur -61.6159 6.87196 -18.5552
ltibia 77.7877
lfoot -32.1859 -14.9112
ltoes 8.04908
957
root -16.6722 28.7524 -10.2688 217.591 78.2652 -167.232
lowerback 30.0582 -1.31709 -0.810673
upperback 11.6079 -0.393917 2.47627
thorax -3.38324 0.227552 3.29948
lowerneck -3.13248 -4.29297 -6.92229
upperneck 24.5358 -5.21022 4.4481
head 8.42523 -2.41138 2.2835
rclavicle -1.68967e-014 -4.9895e-014
rhumerus 5.61425 15.1169 -68.3198
rradius 85.4988
rwrist 20.4298
rhand -46.5961 -3.61263
rfingers 7.12502
rthumb -19.3189 -32.673
lclavicle -1.68967e-014 -4.9895e-014
lhumerus 11.2386 -23.8365 70.1371
lradius 88.6808
lwrist -33.9805
lhand -21.9378 -17.12
lfingers 7.12502
lthumb 4.46885 12.8129
rfemur -22.6264 3.02743 25.6426
rtibia 19.24
rfoot 7.89497 -9.45368
rtoes 11.8618
lfemur -62.475 6.13283 -18.6835
ltibia 78.717
lfoot -32.1648 -15.5615
ltoes 9.076
958
root -16.7461 28.6711 -10.2104 221.069 78.406 -163.288
lowerback 30.4212 -0.935392 -1.25432
upperback 11.6526 -0.0323312 2.42253
thorax -3.51291 0.395522 3.38579
lowerneck -3.40087 -4.14765 -5.65364
upperneck 24.6214 -5.03776 3.91746
head 8.43863 -2.26529 1.90028
rclavicle 1.98785e-016 -5.46658e-015
rhumerus 5.7086 15.1305 -68.6017
rradius 85.7255
rwrist 19.3619
rhand -46.233 -1.86965
rfingers 7.12502
rthumb -18.9698 -30.9646
lclavicle 1.98785e-016 -5.46658e-015
lhumerus 11.7747 -23.5083 69.5384
lradius 89.3029
lwrist -33.5995
lhand -20.8852 -16.2982
lfingers 7.12502
lthumb 5.48515 13.6108
rfemur -21.9974 4.35313 26.2377
rtibia 18.3749
rfoot 7.75496 -10.4432
rtoes 13.728
lfemur -62.9376 7.15 -18.0069
ltibia 79.7039
lfoot -32.2092 -16.1034
ltoes 9.1555
959
root -16.8208 28.5965 -10.1645 223.477 78.7151 -160.461
lowerback 30.5662 -0.354831 -1.98066
upperback 11.8049 0.550836 2.92907
thorax -3.43995 0.649318 4.18608
lowerneck -3.91635 -4.24451 -7.10971
upperneck 24.8748 -5.10108 4.49807
head 8.6862 -2.36482 2.33095
rclavicle 7.35503e-015 2.49475e-014
rhumerus 6.07906 14.7819 -67.526
rradius 86.363
rwrist 19.5489
rhand -45.9669 -4.90541
rfingers 7.12502
rthumb -18.7138 -34.0252
lclavicle 7.35503e-015 2.49475e-014
lhumerus 12.2392 -22.9564 71.1993
lradius 89.5985
lwrist -34.3239
lhand -19.6536 -16.0941
lfingers 7.12502
lthumb 6.67421 13.7807
rfemur -21.515 3.04083 27.0407
rtibia 17.5176
rfoot 8.30186 -9.09576
rtoes 15.9867
lfemur -63.3184 7.98549 -17.7186
ltibia 80.5591
lfoot -32.2325 -16.5274
ltoes 9.33913
960
root -16.8835 28.5404 -10.1027 229.215 80.161 -154.3
lowerback 30.62 0.851789 -3.57166
upperback 11.7386 1.60682 3.22583
thorax -3.6456 1.10288 5.10099
lowerneck -3.80871 -4.5922 -8.79253
upperneck 25.3757 -5.60175 5.61564
head 8.96474 -2.64127 2.96157
rclavicle 2.78299e-014 5.10877e-014
rhumerus 5.89752 15.0212 -66.6819
rradius 87.1396
rwrist 18.812
rhand -45.5601 -3.47854
rfingers 7.12502
rthumb -18.3226 -32.6356
lclavicle 2.78299e-014 5.10877e-014
lhumerus 12.1743 -22.3141 71.9723
lradius 90.4393
lwrist -34.2545
lhand -18.4872 -15.868
lfingers 7.12502
lthumb 7.80015 13.9681
rfemur -20.8753 5.26386 26.9054
rtibia 16.6032
rfoot 8.26414 -10.3433
rtoes 19.9845
lfemur -63.3875 10.0366 -17.8088
ltibia 81.3744
lfoot -33.5455 -15.2495
ltoes 5.42198
961
root -16.9555 28.509 -10.1474 220.03 78.9347 -163.536
lowerback 30.5436 -0.378561 -2.28562
upperback 11.5641 0.407479 2.89991
thorax -3.68722 0.57156 4.37684
lowerneck -3.12855 -4.27855 -9.04722
upperneck 24.7071 -5.21028 5.67842
head 8.58363 -2.4862 3.06545
rclavicle 2.70347e-014 6.22196e-014
rhumerus 6.06103 14.5803 -66.791
rradius 87.3479
rwrist 19.2575
rhand -45.228 -4.86792
rfingers 7.12502
rthumb -18.0031 -34.0547
lclavicle 2.70347e-014 6.22196e-014
lhumerus 12.5578 -21.9069 72.6376
lradius 90.4418
lwrist -34.8415
lhand -17.9798 -15.3468
lfingers 7.12502
lthumb 8.28981 14.4705
rfemur -20.6716 2.84537 26.3482
rtibia 15.7634
rfoot 8.16519 -10.4324
rtoes 22.9037
lfemur -63.9816 7.99387 -18.5854
ltibia 81.8462
lfoot -34.216 -14.0035
ltoes 2.61561
962
root -17.0513 28.4702 -10.1498 214.061 76.7965 -169.201
lowerback 31.4976 -1.47011 -1.29588
upperback 11.2007 -0.621472 3.21635
thorax -4.44904 0.119689 4.51489
lowerneck -2.68097 -4.4644 -8.49422
upperneck 24.6975 -5.38446 4.9704
head 8.47935 -2.5814 2.72181
rclavicle -3.57812e-015 3.83157e-014
rhumerus 5.51019 15.1835 -66.0026
rradius 88.4361
rwrist 17.8935
rhand -44.429 -1.85121
rfingers 7.12502
rthumb -17.2342 -31.107
lclavicle -3.57812e-015 3.83157e-014
lhumerus 12.5286 -21.5813 73.4979
lradius 90.6638
lwrist -35.5801
lhand -17.7598 -14.6206
lfingers 7.12502
lthumb 8.50211 15.1882
rfemur -20.3831 1.73633 26.2675
rtibia 15.3571
rfoot 7.10602 -12.3551
rtoes 25.9711
lfemur -65.0355 5.72895 -17.2003
ltibia 82.7577
lfoot -25.4705 -26.6499
ltoes 31.4362
963
root -17.1259 28.3837 -10.0907 216.888 76.6188 -165.953
lowerback 31.9359 -1.08837 -1.67742
upperback 11.0446 -0.218281 3.68051
thorax -4.84441 0.303579 5.13707
lowerneck -1.90501 -4.45007 -9.1498
upperneck 24.0449 -5.38515 5.09855
head 8.1425 -2.63645 2.88288
rclavicle -8.94531e-016 -3.60794e-014
rhumerus 6.35535 14.6858 -65.9718
rradius 87.3971
rwrist 18.476
rhand -44.0482 -3.7291
rfingers 7.12502
rthumb -16.8676 -33.0165
lclavicle -8.94531e-016 -3.60794e-014
lhumerus 12.5651 -21.439 73.6136
lradius 91.3463
lwrist -36.0588
lhand -17.6013 -13.2005
lfingers 7.12502
lthumb 8.65513 16.602
rfemur -20.2296 1.7166 27.5656
rtibia 15.3191
rfoot 8.82917 -11.3071
rtoes 17.5617
lfemur -65.3974 5.7853 -16.5109
ltibia 83.5762
lfoot -28.2244 -23.7523
ltoes 25.4533
964
root -17.1879 28.2659 -10.0729 218.209 77.3581 -164.14
lowerback 32.0188 -0.536066 -2.49384
upperback 11.0284 0.223684 3.75921
thorax -4.93196 0.497583 5.5537
lowerneck -1.69377 -4.44115 -9.23317
upperneck 24.1811 -5.32063 4.89758
head 8.14554 -2.62756 2.84005
rclavicle 4.7112e-014 5.10877e-014
rhumerus 6.2027 14.9049 -65.5531
rradius 88.4527
rwrist 17.4959
rhand -43.2323 -1.73387
rfingers 7.12502
rthumb -16.082 -31.0865
lclavicle 4.7112e-014 5.10877e-014
lhumerus 12.6075 -20.9612 74.2888
lradius 91.8127
lwrist -36.8951
lhand -17.2218 -12.2895
lfingers 7.12502
lthumb 9.02129 17.4976
rfemur -19.8237 1.24814 27.9385
rtibia 15.2179
rfoot 10.0026 -9.45583
rtoes 12.7078
lfemur -65.3575 7.37935 -17.6807
ltibia 84.4419
lfoot -33.4692 -16.5344
ltoes 7.45754
